<svg width="262" height="262" viewBox="0 0 262 262" fill="none" xmlns="http://www.w3.org/2000/svg">
<path d="M52.5329 121.996C52.5329 170.406 75.798 207.301 124.208 207.301C166.273 207.301 189.068 180.981 189.303 121.996H194.003L191.653 142.206V204.951H207.163V128.811C207.163 121.056 203.403 117.296 194.238 117.296H113.398V130.456H173.793C174.733 173.461 158.988 194.141 124.208 194.141C83.083 194.141 68.0429 163.356 68.0429 121.996C68.0429 80.8712 88.958 50.0862 129.613 50.0862C163.923 50.0862 178.023 69.5912 181.783 98.4962H197.293C192.358 62.3062 171.208 36.9262 129.613 36.9262C81.673 36.9262 52.5329 73.8212 52.5329 121.996Z" fill="white"/>
<circle cx="131" cy="131" r="125" stroke="white" stroke-width="12"/>
</svg>
